[Header]
FileType HTR
DataType HTRS
FileVersion 1
NumSegments 64
NumFrames 4
DataFrameRate 24
EulerRotationOrder ZYX
CalibrationUnits mm
RotationUnits Degrees
GlobalAxisofGravity Y
BoneLengthAxis Y
ScaleFactor 1.0
[SegmentNames&Hierarchy]
Hips	GLOBAL
Spine	Hips
Spine1	Spine
Spine2	Spine1
Neck	Spine2
Head	Neck
LeftEye	Head
RightEye	Head
LeftShoulder	Spine2
LeftArm	LeftShoulder
LeftForeArm	LeftArm
LeftHand	LeftForeArm
LeftHandThumb1	LeftHand
LeftHandThumb2	LeftHandThumb1
LeftHandThumb3	LeftHandThumb2
LeftHandThumb4	LeftHandThumb3
LeftHandIndex1	LeftHand
LeftHandIndex2	LeftHandIndex1
LeftHandIndex3	LeftHandIndex2
LeftHandIndex4	LeftHandIndex3
LeftHandMiddle1	LeftHand
LeftHandMiddle2	LeftHandMiddle1
LeftHandMiddle3	LeftHandMiddle2
LeftHandMiddle4	LeftHandMiddle3
LeftHandRing1	LeftHand
LeftHandRing2	LeftHandRing1
LeftHandRing3	LeftHandRing2
LeftHandRing4	LeftHandRing3
LeftHandPinky1	LeftHand
LeftHandPinky2	LeftHandPinky1
LeftHandPinky3	LeftHandPinky2
LeftHandPinky4	LeftHandPinky3
RightShoulder	Spine2
RightArm	RightShoulder
RightForeArm	RightArm
RightHand	RightForeArm
RightHandPinky1	RightHand
RightHandPinky2	RightHandPinky1
RightHandPinky3	RightHandPinky2
RightHandPinky4	RightHandPinky3
RightHandRing1	RightHand
RightHandRing2	RightHandRing1
RightHandRing3	RightHandRing2
RightHandRing4	RightHandRing3
RightHandMiddle1	RightHand
RightHandMiddle2	RightHandMiddle1
RightHandMiddle3	RightHandMiddle2
RightHandMiddle4	RightHandMiddle3
RightHandIndex1	RightHand
RightHandIndex2	RightHandIndex1
RightHandIndex3	RightHandIndex2
RightHandIndex4	RightHandIndex3
RightHandThumb1	RightHand
RightHandThumb2	RightHandThumb1
RightHandThumb3	RightHandThumb2
RightHandThumb4	RightHandThumb3
LeftUpLeg	Hips
LeftLeg	LeftUpLeg
LeftFoot	LeftLeg
LeftToeBase	LeftFoot
RightUpLeg	Hips
RightLeg	RightUpLeg
RightFoot	RightLeg
RightToeBase	RightFoot
[BasePosition]
Hips	0	0	0	0	0	0	1
Spine	0	0	0	0	0	0	1
Spine1	0	0	0	0	0	0	1
Spine2	0	0	0	0	0	0	1
Neck	0	0	0	0	0	0	1
Head	0	0	0	0	0	0	1
LeftEye	0	0	0	0	0	0	1
RightEye	0	0	0	0	0	0	1
LeftShoulder	0	0	0	0	0	0	1
LeftArm	0	0	0	0	0	0	1
LeftForeArm	0	0	0	0	0	0	1
LeftHand	0	0	0	0	0	0	1
LeftHandThumb1	0	0	0	0	0	0	1
LeftHandThumb2	0	0	0	0	0	0	1
LeftHandThumb3	0	0	0	0	0	0	1
LeftHandThumb4	0	0	0	0	0	0	1
LeftHandIndex1	0	0	0	0	0	0	1
LeftHandIndex2	0	0	0	0	0	0	1
LeftHandIndex3	0	0	0	0	0	0	1
LeftHandIndex4	0	0	0	0	0	0	1
LeftHandMiddle1	0	0	0	0	0	0	1
LeftHandMiddle2	0	0	0	0	0	0	1
LeftHandMiddle3	0	0	0	0	0	0	1
LeftHandMiddle4	0	0	0	0	0	0	1
LeftHandRing1	0	0	0	0	0	0	1
LeftHandRing2	0	0	0	0	0	0	1
LeftHandRing3	0	0	0	0	0	0	1
LeftHandRing4	0	0	0	0	0	0	1
LeftHandPinky1	0	0	0	0	0	0	1
LeftHandPinky2	0	0	0	0	0	0	1
LeftHandPinky3	0	0	0	0	0	0	1
LeftHandPinky4	0	0	0	0	0	0	1
RightShoulder	0	0	0	0	0	0	1
RightArm	0	0	0	0	0	0	1
RightForeArm	0	0	0	0	0	0	1
RightHand	0	0	0	0	0	0	1
RightHandPinky1	0	0	0	0	0	0	1
RightHandPinky2	0	0	0	0	0	0	1
RightHandPinky3	0	0	0	0	0	0	1
RightHandPinky4	0	0	0	0	0	0	1
RightHandRing1	0	0	0	0	0	0	1
RightHandRing2	0	0	0	0	0	0	1
RightHandRing3	0	0	0	0	0	0	1
RightHandRing4	0	0	0	0	0	0	1
RightHandMiddle1	0	0	0	0	0	0	1
RightHandMiddle2	0	0	0	0	0	0	1
RightHandMiddle3	0	0	0	0	0	0	1
RightHandMiddle4	0	0	0	0	0	0	1
RightHandIndex1	0	0	0	0	0	0	1
RightHandIndex2	0	0	0	0	0	0	1
RightHandIndex3	0	0	0	0	0	0	1
RightHandIndex4	0	0	0	0	0	0	1
RightHandThumb1	0	0	0	0	0	0	1
RightHandThumb2	0	0	0	0	0	0	1
RightHandThumb3	0	0	0	0	0	0	1
RightHandThumb4	0	0	0	0	0	0	1
LeftUpLeg	0	0	0	0	0	0	1
LeftLeg	0	0	0	0	0	0	1
LeftFoot	0	0	0	0	0	0	1
LeftToeBase	0	0	0	0	0	0	1
RightUpLeg	0	0	0	0	0	0	1
RightLeg	0	0	0	0	0	0	1
RightFoot	0	0	0	0	0	0	1
RightToeBase	0	0	0	0	0	0	1
[Hips]
7	-1213.368652	941.2128906	11.93982124	5.389248371	-74.10295105	11.52863503	1.0
8	-1392.031982	922.0612793	16.65101433	-0.5908510089	-73.74416351	18.65741539	1.0
9	-1568.546753	906.9415283	21.61852074	-4.967895985	-72.78511047	24.74499512	1.0
10	-1748.544189	903.8067017	23.84051895	-3.839738846	-72.45631409	23.71993065	1.0
[Spine]
7	0	101.8159943	1.315000057	6.587454319	16.04980469	-5.491666794	1.0
8	0	101.8159943	1.315000057	7.378381252	11.84288406	-6.444889545	1.0
9	0	101.8159943	1.315000057	8.248612404	8.611639023	-6.969361782	1.0
10	0	101.8159943	1.315000057	8.522087097	6.748206139	-5.92247963	1.0
[Spine1]
7	0	100.8349991	-10.00800037	2.438036203	6.536031723	-2.683155775	1.0
8	0	100.8349991	-10.00800037	2.796981096	4.965893745	-2.651250362	1.0
9	0	100.8349991	-10.00800037	3.146638632	3.633200884	-2.50765419	1.0
10	0	100.8349991	-10.00800037	3.252546549	2.770689487	-2.063589334	1.0
[Spine2]
7	0	91	-13.73399925	2.418134928	6.493663788	-2.808232784	1.0
8	0	91	-13.73399925	2.775855064	4.937176704	-2.732444763	1.0
9	0	91	-13.73399925	3.12318778	3.61563158	-2.558672667	1.0
10	0	91	-13.73399925	3.232587814	2.763039827	-2.101993799	1.0
[Neck]
7	0	166.7169952	-25.16200066	0.4192360044	4.515458584	3.819080591	1.0
8	0	166.7169952	-25.16200066	-0.6424248219	6.102972507	2.690535307	1.0
9	0	166.7169952	-25.16200066	-1.049146056	7.003875256	1.985406399	1.0
10	0	166.7169952	-25.16200066	-0.7683115005	7.484404087	1.989465594	1.0
[Head]
7	0	96.17900085	16.84999847	-26.62056351	34.16530609	-28.57749939	1.0
8	0	96.17900085	16.84999847	-31.88508034	36.35625458	-32.05267715	1.0
9	0	96.17900085	16.84999847	-36.13664627	36.57419205	-35.24850464	1.0
10	0	96.17900085	16.84999847	-36.70400238	37.83501434	-36.53768158	1.0
[LeftEye]
7	30.6760006	64.09500122	92.83599854	0	0	0	1.0
8	30.6760006	64.09500122	92.83599854	0	0	0	1.0
9	30.6760006	64.09500122	92.83599854	0	0	0	1.0
10	30.6760006	64.09500122	92.83599854	0	0	0	1.0
[RightEye]
7	-30.6760006	64.09500122	92.83499908	0	0	0	1.0
8	-30.6760006	64.09500122	92.83499908	0	0	0	1.0
9	-30.6760006	64.09500122	92.83499908	0	0	0	1.0
10	-30.6760006	64.09500122	92.83499908	0	0	0	1.0
[LeftShoulder]
7	45.70400238	109.4599991	-26.28000069	-1.087845206	8.089262962	-0.5976106524	1.0
8	45.70400238	109.4599991	-26.28000069	-0.3244284391	4.13786459	-8.861012459	1.0
9	45.70400238	109.4599991	-26.28000069	1.161055565	-1.577586174	-15.92932224	1.0
10	45.70400238	109.4599991	-26.28000069	2.274658918	-6.026077271	-17.67753792	1.0
[LeftArm]
7	105.923996	-5.24600029	-22.32099915	8.747869492	35.78511429	-54.57970428	1.0
8	105.923996	-5.24600029	-22.32099915	7.083029747	26.85704613	-50.83743286	1.0
9	105.923996	-5.24600029	-22.32099915	7.955895901	13.26390743	-43.66485596	1.0
10	105.923996	-5.24600029	-22.32099915	10.96779156	-1.505459428	-37.49515915	1.0
[LeftForeArm]
7	278.414978	-0.0009999999311	0	1.548206342e-06	-62.12202835	-0.0002270401455	1.0
8	278.414978	-0.0009999999311	0	-4.813430678e-06	-63.4815712	-0.000196298206	1.0
9	278.414978	-0.0009999999311	0	2.067591231e-05	-63.56235123	-0.0002349333372	1.0
10	278.414978	-0.0009999999311	0	-1.069581776e-05	-65.77253723	-0.0002130979847	1.0
[LeftHand]
7	283.2879944	0	0	34.15028	-11.97106838	-0.07072453201	1.0
8	283.2879944	0	0	33.6431694	-6.277387142	-6.792538166	1.0
9	283.2879944	0	0	30.68333626	-3.130349159	-14.9613657	1.0
10	283.2879944	0	0	23.87201881	-3.081429005	-20.84975243	1.0
[LeftHandThumb1]
7	24.6609993	-15.75	26.8239994	-0.5724537969	1.803558588	-3.05813098	1.0
8	24.6609993	-15.75	26.8239994	-0.007355988957	3.185379744	-2.56511569	1.0
9	24.6609993	-15.75	26.8239994	0.3066934347	3.938083649	-2.290655375	1.0
10	24.6609993	-15.75	26.8239994	-0.04506160319	3.095479727	-2.600362062	1.0
[LeftHandThumb2]
7	32.29800034	-18.64699936	18.64699936	7.908648014	15.58620453	18.13464165	1.0
8	32.29800034	-18.64699936	18.64699936	8.23742485	16.92519951	18.51806068	1.0
9	32.29800034	-18.64699936	18.64699936	8.421710014	17.65494919	18.73444557	1.0
10	32.29800034	-18.64699936	18.64699936	8.215591431	16.83618927	18.4971981	1.0
[LeftHandThumb3]
7	26.52600098	-15.31499958	15.31499958	-28.29275513	-21.0697937	21.83923149	1.0
8	26.52600098	-15.31499958	15.31499958	-27.84292412	-20.15999413	21.62357712	1.0
9	26.52600098	-15.31499958	15.31499958	-27.60071754	-19.66221237	21.51035881	1.0
10	26.52600098	-15.31499958	15.31499958	-27.87281227	-20.21950531	21.63887787	1.0
[LeftHandThumb4]
7	19.54599953	-11.28499985	11.28499985	0	0	0	1.0
8	19.54599953	-11.28499985	11.28499985	0	0	0	1.0
9	19.54599953	-11.28499985	11.28499985	0	0	0	1.0
10	19.54599953	-11.28499985	11.28499985	0	0	0	1.0
[LeftHandIndex1]
7	91.09299469	-5.170999527	22.60099792	-2.726066113	-2.782624245	-39.27619171	1.0
8	91.09299469	-5.170999527	22.60099792	-3.250617027	-2.413995981	-44.50627899	1.0
9	91.09299469	-5.170999527	22.60099792	-3.545913935	-2.212498426	-47.35701752	1.0
10	91.09299469	-5.170999527	22.60099792	-3.438069105	-2.209682226	-46.3674469	1.0
[LeftHandIndex2]
7	36.76399994	0	0	-0.7303529978	2.827822924	-28.95759964	1.0
8	36.76399994	0	0	-0.9107582569	3.131344318	-32.42739868	1.0
9	36.76399994	0	0	-1.016852975	3.292159557	-34.3209343	1.0
10	36.76399994	0	0	-0.9320452809	3.164564848	-32.81515503	1.0
[LeftHandIndex3]
7	28.83100128	0	0	-0.1332649738	1.240938425	-12.25887012	1.0
8	28.83100128	0	0	-0.2099818289	1.552432537	-15.40541935	1.0
9	28.83100128	0	0	-0.2589533031	1.720215201	-17.12031555	1.0
10	28.83100128	0	0	-0.2147984654	1.569808364	-15.58235359	1.0
[LeftHandIndex4]
7	23.92700005	0	0	0	0	0	1.0
8	23.92700005	0	0	0	0	0	1.0
9	23.92700005	0	0	0	0	0	1.0
10	23.92700005	0	0	0	0	0	1.0
[LeftHandMiddle1]
7	95.33399963	0	0	-3.632591486	-0.1854095608	-48.09392166	1.0
8	95.33399963	0	0	-4.222302437	-0.3234663904	-53.65922165	1.0
9	95.33399963	0	0	-4.550261497	-0.404048413	-56.6934967	1.0
10	95.33399963	0	0	-4.426301479	-0.4866418242	-55.55579376	1.0
[LeftHandMiddle2]
7	36.98199844	0	0	-1.986516833	4.384784698	-48.72894669	1.0
8	36.98199844	0	0	-2.437418938	4.741549015	-54.3919487	1.0
9	36.98199844	0	0	-2.697703123	4.916877747	-57.48293304	1.0
10	36.98199844	0	0	-2.597713709	4.851926804	-56.30863953	1.0
[LeftHandMiddle3]
7	29.50900078	0	0	-0.06139136106	0.8449270725	-8.311620712	1.0
8	29.50900078	0	0	-0.1148032546	1.152706265	-11.37483597	1.0
9	29.50900078	0	0	-0.1517253965	1.323010802	-13.08366203	1.0
10	29.50900078	0	0	-0.1112101525	1.13472867	-11.19510841	1.0
[LeftHandMiddle4]
7	28.3390007	0	0	0	0	0	1.0
8	28.3390007	0	0	0	0	0	1.0
9	28.3390007	0	0	0	0	0	1.0
10	28.3390007	0	0	0	0	0	1.0
[LeftHandRing1]
7	91.04499817	-0.4390000105	-18.65100098	-3.841063261	5.243066788	-49.97216034	1.0
8	91.04499817	-0.4390000105	-18.65100098	-4.492008686	4.352527618	-56.06999969	1.0
9	91.04499817	-0.4390000105	-18.65100098	-4.851099968	3.846417189	-59.38968658	1.0
10	91.04499817	-0.4390000105	-18.65100098	-4.696953297	3.556446552	-57.98176956	1.0
[LeftHandRing2]
7	31.54000092	0	0	-3.633424997	5.398453236	-67.86328888	1.0
8	31.54000092	0	0	-4.214346886	5.598791599	-73.92041779	1.0
9	31.54000092	0	0	-4.53930521	5.682002544	-77.22583008	1.0
10	31.54000092	0	0	-4.3979249	5.648237705	-75.79362488	1.0
[LeftHandRing3]
7	29.37700081	0	0	-0.3060794771	1.866292953	-18.62590981	1.0
8	29.37700081	0	0	-0.443826586	2.233491659	-22.47538948	1.0
9	29.37700081	0	0	-0.5291674733	2.429368019	-24.57333565	1.0
10	29.37700081	0	0	-0.4498040378	2.24788022	-22.62854004	1.0
[LeftHandRing4]
7	26.47500038	0	0	0	0	0	1.0
8	26.47500038	0	0	0	0	0	1.0
9	26.47500038	0	0	0	0	0	1.0
10	26.47500038	0	0	0	0	0	1.0
[LeftHandPinky1]
7	80.77799988	-4.887000084	-38.06099701	-5.309138775	8.532660484	-60.86401749	1.0
8	80.77799988	-4.887000084	-38.06099701	-5.897088528	6.255838394	-67.84897614	1.0
9	80.77799988	-4.887000084	-38.06099701	-6.20998621	4.955158234	-71.63755035	1.0
10	80.77799988	-4.887000084	-38.06099701	-6.045550346	4.790403843	-69.6563797	1.0
[LeftHandPinky2]
7	36	0	0	-5.303617001	5.801896572	-84.85390472	1.0
8	36	0	0	-6.009374142	5.822313786	-91.814888	1.0
9	36	0	0	-6.393822193	5.797491074	-95.61133575	1.0
10	36	0	0	-6.193059444	5.813633919	-93.62667847	1.0
[LeftHandPinky3]
7	21.14200211	0	0	-1.059434772	3.353577137	-35.05572128	1.0
8	21.14200211	0	0	-1.456119061	3.856562376	-41.35791397	1.0
9	21.14200211	0	0	-1.695258141	4.11168766	-44.79867554	1.0
10	21.14200211	0	0	-1.545615315	3.955659151	-42.67144394	1.0
[LeftHandPinky4]
7	19.75699997	0	0	0	0	0	1.0
8	19.75699997	0	0	0	0	0	1.0
9	19.75699997	0	0	0	0	0	1.0
10	19.75699997	0	0	0	0	0	1.0
[RightShoulder]
7	-45.70000076	109.4620056	-26.28000069	3.076297283	13.42262268	10.64449215	1.0
8	-45.70000076	109.4620056	-26.28000069	3.279353142	13.82848454	11.4855442	1.0
9	-45.70000076	109.4620056	-26.28000069	3.153364182	12.91558933	11.93867016	1.0
10	-45.70000076	109.4620056	-26.28000069	2.838727474	11.48880005	11.76012993	1.0
[RightArm]
7	-105.9280014	-5.248000145	-22.32099915	-18.25705528	-13.8624115	42.28829193	1.0
8	-105.9280014	-5.248000145	-22.32099915	-1.892211795	-16.9082489	46.75253677	1.0
9	-105.9280014	-5.248000145	-22.32099915	4.885907173	-21.19581413	54.00221634	1.0
10	-105.9280014	-5.248000145	-22.32099915	1.589023352	-23.68977737	62.16227341	1.0
[RightForeArm]
7	-278.414978	0	0	0	136.4864502	0	1.0
8	-278.414978	0	0	1.525878633e-05	121.8918304	1.525879452e-05	1.0
9	-278.414978	0	0	-4.577636719e-05	96.28679657	6.103515625e-05	1.0
10	-278.414978	0	0	-4.075709057e-06	60.6947937	-1.226334371e-05	1.0
[RightHand]
7	-283.2879944	0	0.0009999999311	56.50502777	-6.124671936	-12.94522762	1.0
8	-283.2879944	0	0.0009999999311	56.94820786	-10.03973579	-25.96049118	1.0
9	-283.2879944	0	0.0009999999311	50.0368309	-2.790322304	-32.1336174	1.0
10	-283.2879944	0	0.0009999999311	46.93200302	13.67723083	-23.26366425	1.0
[RightHandPinky1]
7	-80.76699829	-4.885000229	-38.06000137	-3.812960148	-3.590488672	48.20656586	1.0
8	-80.76699829	-4.885000229	-38.06000137	-3.077788115	-3.341208696	36.11149979	1.0
9	-80.76699829	-4.885000229	-38.06000137	-2.587253571	-3.051575422	27.20563126	1.0
10	-80.76699829	-4.885000229	-38.06000137	-2.436066866	-2.948700905	24.33201218	1.0
[RightHandPinky2]
7	-36	0	0.0009999999311	-3.266703606	-4.425542355	72.87294006	1.0
8	-36	0	0.0009999999311	-2.369878292	-4.042245865	60.77038193	1.0
9	-36	0	0.0009999999311	-1.771624088	-3.644100666	51.86258698	1.0
10	-36	0	0.0009999999311	-1.592655778	-3.496364594	48.9892807	1.0
[RightHandPinky3]
7	-21.14200211	0	0	-0.3427321911	-1.749933958	22.16089249	1.0
8	-21.14200211	0	0	-0.0721726492	-0.8152345419	10.11855221	1.0
9	-21.14200211	0	0	-0.001105619245	-0.1012556776	1.250243664	1.0
10	-21.14200211	0	0	-0.001837779419	0.1305390745	-1.611933708	1.0
[RightHandPinky4]
7	-19.75699997	0	0	0	0	0	1.0
8	-19.75699997	0	0	0	0	0	1.0
9	-19.75699997	0	0	0	0	0	1.0
10	-19.75699997	0	0	0	0	0	1.0
[RightHandRing1]
7	-91.03599548	-0.4390000105	-18.65100098	-2.404863596	-2.311786175	38.72834778	1.0
8	-91.03599548	-0.4390000105	-18.65100098	-1.738482833	-2.054927588	30.28400421	1.0
9	-91.03599548	-0.4390000105	-18.65100098	-1.286287665	-1.826388597	24.06449509	1.0
10	-91.03599548	-0.4390000105	-18.65100098	-1.14862895	-1.754051447	22.0570755	1.0
[RightHandRing2]
7	-31.54000092	0	0	-2.124445677	-3.895002604	57.20584106	1.0
8	-31.54000092	0	0	-1.57834065	-3.48388195	48.73439026	1.0
9	-31.54000092	0	0	-1.218144894	-3.131938219	42.49833298	1.0
10	-31.54000092	0	0	-1.110357404	-3.010249138	40.48656082	1.0
[RightHandRing3]
7	-29.37700081	0	0	-0.0142074693	-0.3627855778	4.483785629	1.0
8	-29.37700081	0	0	-0.01097580325	0.3190910816	-3.942851067	1.0
9	-29.37700081	0	0	-0.07264776528	0.8178859353	-10.15180492	1.0
10	-29.37700081	0	0	-0.1040477678	0.9771090746	-12.15612316	1.0
[RightHandRing4]
7	-26.47500038	0	0	0	0	0	1.0
8	-26.47500038	0	0	0	0	0	1.0
9	-26.47500038	0	0	0	0	0	1.0
10	-26.47500038	0	0	0	0	0	1.0
[RightHandMiddle1]
7	-95.32500458	0	0	-2.29060936	1.610978007	37.4759903	1.0
8	-95.32500458	0	0	-1.765520811	1.602799654	30.81037712	1.0
9	-95.32500458	0	0	-1.402083516	1.599629402	25.89797401	1.0
10	-95.32500458	0	0	-1.290105104	1.585761309	24.31230927	1.0
[RightHandMiddle2]
7	-36.98199844	0	0	-1.015033126	-2.895017147	38.6362915	1.0
8	-36.98199844	0	0	-0.698951602	-2.448240995	31.86300087	1.0
9	-36.98199844	0	0	-0.5010900497	-2.096943855	26.87639427	1.0
10	-36.98199844	0	0	-0.4438704848	-1.980063319	25.26775551	1.0
[RightHandMiddle3]
7	-29.50900078	0	0	-0.01574808359	0.3799885511	-4.721916676	1.0
8	-29.50900078	0	0	-0.07065919787	0.8046808839	-10.01158333	1.0
9	-29.50900078	0	0	-0.1362426877	1.114096642	-13.91843891	1.0
10	-29.50900078	0	0	-0.1571292877	1.195227981	-14.95322037	1.0
[RightHandMiddle4]
7	-28.3390007	0	0.0009999999311	0	0	0	1.0
8	-28.3390007	0	0.0009999999311	0	0	0	1.0
9	-28.3390007	0	0.0009999999311	0	0	0	1.0
10	-28.3390007	0	0.0009999999311	0	0	0	1.0
[RightHandIndex1]
7	-91.08300018	-5.167999744	22.60099792	-1.598808527	3.481261015	28.96192741	1.0
8	-91.08300018	-5.167999744	22.60099792	-1.16786027	3.546674252	23.34810829	1.0
9	-91.08300018	-5.167999744	22.60099792	-0.8658084273	3.588823318	19.21102333	1.0
10	-91.08300018	-5.167999744	22.60099792	-0.7698728442	3.58970046	17.87575722	1.0
[RightHandIndex2]
7	-36.76399994	0	0	-0.1790603995	-1.276527882	15.96938419	1.0
8	-36.76399994	0	0	-0.07331354171	-0.821603179	10.19853497	1.0
9	-36.76399994	0	0	-0.02498122305	-0.4808530211	5.947710037	1.0
10	-36.76399994	0	0	-0.01479185745	-0.3702135682	4.575781345	1.0
[RightHandIndex3]
7	-28.83100128	0	0	-0.0006300943787	0.07618886977	-0.9406452775	1.0
8	-28.83100128	0	0	-0.03101272322	0.5355970263	-6.627777576	1.0
9	-28.83100128	0	0	-0.0824726522	0.8709533215	-10.81829262	1.0
10	-28.83100128	0	0	-0.1043018103	0.9782904983	-12.17100716	1.0
[RightHandIndex4]
7	-23.92700005	0	0	0	0	0	1.0
8	-23.92700005	0	0	0	0	0	1.0
9	-23.92700005	0	0	0	0	0	1.0
10	-23.92700005	0	0	0	0	0	1.0
[RightHandThumb1]
7	-24.64799881	-15.72700024	26.82600021	-2.465496063	2.304372311	4.252258778	1.0
8	-24.64799881	-15.72700024	26.82600021	-4.441864491	8.011493683	5.843939781	1.0
9	-24.64799881	-15.72700024	26.82600021	-5.810838223	12.24600792	6.922780991	1.0
10	-24.64799881	-15.72700024	26.82600021	-6.247227192	13.6192112	7.237013817	1.0
[RightHandThumb2]
7	-32.29800034	-18.64699936	18.64699936	8.611804962	-15.25841808	-18.79091644	1.0
8	-32.29800034	-18.64699936	18.64699936	7.428318977	-9.853115082	-17.33921432	1.0
9	-32.29800034	-18.64699936	18.64699936	6.654879093	-5.849119663	-16.37459946	1.0
10	-32.29800034	-18.64699936	18.64699936	6.422459602	-4.55649662	-16.05966377	1.0
[RightHandThumb3]
7	-26.52600098	-15.31399918	15.31399918	-25.33766937	16.86318779	-21.52884483	1.0
8	-26.52600098	-15.31399918	15.31399918	-27.11836624	20.52204132	-22.37630272	1.0
9	-26.52600098	-15.31399918	15.31399918	-28.50111008	23.19754791	-23.09982872	1.0
10	-26.52600098	-15.31399918	15.31399918	-28.95931625	24.05941391	-23.34730721	1.0
[RightHandThumb4]
7	-19.54599953	-11.28499985	11.28499985	0	0	0	1.0
8	-19.54599953	-11.28499985	11.28499985	0	0	0	1.0
9	-19.54599953	-11.28499985	11.28499985	0	0	0	1.0
10	-19.54599953	-11.28499985	11.28499985	0	0	0	1.0
[LeftUpLeg]
7	82.07800293	-67.51699829	-15.99599934	-50.89260101	-2.766738415	-12.47466183	1.0
8	82.07800293	-67.51699829	-15.99599934	-53.85163116	-0.0855954811	-12.57821751	1.0
9	82.07800293	-67.51699829	-15.99599934	-50.13320923	-1.278794527	-11.71959209	1.0
10	82.07800293	-67.51699829	-15.99599934	-37.39723587	-0.1044038832	-9.706498146	1.0
[LeftLeg]
7	0	-443.7049866	2.845999956	15.9905653	-7.62395525	-8.244028091	1.0
8	0	-443.7049866	2.845999956	39.64253616	-1.269095182	-9.83928299	1.0
9	0	-443.7049866	2.845999956	53.42708206	-1.382921338	-9.628739357	1.0
10	0	-443.7049866	2.845999956	53.55282211	-4.531970978	-8.482218742	1.0
[LeftFoot]
7	0	-444.2789917	-29.8219986	12.4643259	-3.39868331	0.5588000417	1.0
8	0	-444.2789917	-29.8219986	-1.761084914	0.06303346157	13.98873806	1.0
9	0	-444.2789917	-29.8219986	-20.45648193	3.529429674	11.36074924	1.0
10	0	-444.2789917	-29.8219986	-34.54419708	2.518945217	8.889070511	1.0
[LeftToeBase]
7	0	-87.28699493	107.1060028	-9.224606514	-2.225470098e-06	3.135110546e-06	1.0
8	0	-87.28699493	107.1060028	-9.855974197	8.90750016e-06	5.270396741e-06	1.0
9	0	-87.28699493	107.1060028	-8.80229187	1.153539529e-06	-1.841283847e-06	1.0
10	0	-87.28699493	107.1060028	-8.084959984	-3.167260729e-05	-1.176230057e-06	1.0
[RightUpLeg]
7	-82.07800293	-67.51699829	-15.99599934	7.429683685	-27.90998077	-0.813277483	1.0
8	-82.07800293	-67.51699829	-15.99599934	-9.472253799	-28.53170967	-0.8017864227	1.0
9	-82.07800293	-67.51699829	-15.99599934	-31.6637001	-25.22401237	2.623346567	1.0
10	-82.07800293	-67.51699829	-15.99599934	-51.91571045	-18.24033356	3.692976713	1.0
[RightLeg]
7	0	-443.7049866	2.861999989	71.38580322	-1.431189418	0.9265826941	1.0
8	0	-443.7049866	2.861999989	97.6289978	-1.01611042	-4.986692429	1.0
9	0	-443.7049866	2.861999989	114.1231537	1.724511623	-5.251857281	1.0
10	0	-443.7049866	2.861999989	117.4027328	0.2097077817	-1.256876826	1.0
[RightFoot]
7	0	-444.2770081	-29.83799934	7.896404266	-6.216333866	-4.04775095	1.0
8	0	-444.2770081	-29.83799934	4.203938484	-10.04150009	-11.05847645	1.0
9	0	-444.2770081	-29.83799934	-0.176117301	-5.876450062	-13.19563484	1.0
10	0	-444.2770081	-29.83799934	-7.006637096	-0.9526870847	-5.964842319	1.0
[RightToeBase]
7	0	-87.28699493	107.1060028	-8.22441864	3.423383532e-06	-1.90890496e-05	1.0
8	0	-87.28699493	107.1060028	-10.12788677	-1.83134689e-05	-5.466377502e-07	1.0
9	0	-87.28699493	107.1060028	-10.67262459	-5.496873996e-07	6.773741006e-06	1.0
10	0	-87.28699493	107.1060028	-9.369329453	-1.691241778e-05	-2.942623951e-06	1.0
[EndOfFile]
